<svg xmlns="http://www.w3.org/2000/svg" viewBox="0 0 640 720" fill="none">
  <defs>
    <linearGradient id="seat" x1="220" y1="280" x2="430" y2="520" gradientUnits="userSpaceOnUse">
      <stop stop-color="#1e3a8a"/>
      <stop offset="1" stop-color="#1d4ed8"/>
    </linearGradient>
    <linearGradient id="arm" x1="140" y1="360" x2="180" y2="430" gradientUnits="userSpaceOnUse">
      <stop stop-color="#1e40af"/>
      <stop offset="1" stop-color="#2563eb"/>
    </linearGradient>
    <linearGradient id="screen" x1="430" y1="150" x2="560" y2="250" gradientUnits="userSpaceOnUse">
      <stop stop-color="#e2e8f0"/>
      <stop offset="1" stop-color="#cbd5e1"/>
    </linearGradient>
  </defs>
  <ellipse cx="330" cy="640" rx="170" ry="22" fill="#e2e8f0"/>
  <rect x="308" y="430" width="28" height="190" rx="10" fill="#e2e8f0"/>
  <rect x="250" y="608" width="144" height="18" rx="9" fill="#cbd5e1"/>
  <path d="M214 338c8-58 62-104 128-108 78-5 148 42 162 118 6 34-2 62-28 86-18 17-38 38-38 68v18c0 14-12 24-26 24H276c-16 0-28-12-28-26v-20c0-24-16-42-32-58-28-28-32-68-2-102Z" fill="url(#seat)"/>
  <path d="M248 318c18-42 64-70 112-68 52 2 96 36 108 80" stroke="#93c5fd" stroke-width="10" stroke-linecap="round"/>
  <rect x="168" y="352" width="58" height="86" rx="22" fill="url(#arm)"/>
  <rect x="430" y="356" width="54" height="78" rx="20" fill="url(#arm)"/>
  <rect x="186" y="430" width="28" height="86" rx="10" fill="#e2e8f0"/>
  <rect x="164" y="504" width="72" height="16" rx="8" fill="#cbd5e1"/>
  <rect x="438" y="220" width="18" height="150" rx="8" fill="#e2e8f0"/>
  <rect x="428" y="148" width="132" height="88" rx="10" fill="#1e293b"/>
  <rect x="436" y="156" width="116" height="72" rx="6" fill="url(#screen)"/>
  <path d="M494 176c18-16 40-10 48 8 8 16-2 34-22 42-12 5-26 2-34-8-10-12-8-28 8-42Z" fill="#94a3b8"/>
  <circle cx="498" cy="208" r="7" fill="#64748b"/>
  <rect x="312" y="92" width="14" height="118" rx="7" fill="#e2e8f0"/>
  <rect x="286" y="78" width="66" height="18" rx="8" fill="#cbd5e1"/>
  <circle cx="319" cy="58" r="28" fill="#f1f5f9" stroke="#cbd5e1" stroke-width="8"/>
  <circle cx="319" cy="58" r="8" fill="#94a3b8"/>
  <rect x="118" y="248" width="36" height="120" rx="10" fill="#e2e8f0"/>
  <rect x="96" y="228" width="80" height="28" rx="8" fill="#cbd5e1"/>
  <circle cx="86" cy="198" r="18" fill="#bbf7d0"/>
  <circle cx="118" cy="186" r="14" fill="#86efac"/>
  <circle cx="148" cy="202" r="12" fill="#4ade80"/>
  <rect x="548" y="318" width="28" height="96" rx="8" fill="#e2e8f0"/>
  <circle cx="562" cy="292" r="16" fill="#86efac"/>
  <circle cx="582" cy="308" r="11" fill="#4ade80"/>
</svg>
